<svg width="30" height="25" viewBox="0 0 30 25" fill="none" xmlns="http://www.w3.org/2000/svg">
<g id="logo/diamond" clip-path="url(#clip0_47_68)">
<path id="Vector 4" d="M10.0107 14.3376V10.3882H12.7324L10.0107 14.3376Z" fill="#FF0000"/>
<path id="Vector 1" d="M15.3018 12.211V10.3882H28.91L22.7107 16.616L21.1987 15.097L18.7794 17.6793L16.8138 11.6034L15.3018 12.211Z" fill="#FF0000"/>
<path id="Polygon 1" d="M5.02029 5.52747L9.0796 9.40088H0.960985L5.02029 5.52747Z" fill="#FF0000"/>
<path id="Polygon 4" d="M10.1609 8.86914L14.2202 4.99572H6.10161L10.1609 8.86914Z" fill="#FF0000"/>
<path id="Polygon 6" d="M3.96203 13.1224L7.10472 10.1604H0.819336L3.96203 13.1224Z" fill="#FF0000"/>
<path id="Polygon 7" d="M5.47363 14.6413L8.19528 17.0717L8.19528 12.2109L5.47363 14.6413Z" fill="#FF0000"/>
<path id="Polygon 2" d="M14.9998 5.52747L19.0591 9.40088H10.9405L14.9998 5.52747Z" fill="#FF0000"/>
<path id="Polygon 5" d="M20.1404 8.86914L24.1997 4.99572H16.0811L20.1404 8.86914Z" fill="#FF0000"/>
<path id="Polygon 3" d="M24.9793 5.52747L29.0386 9.40088H20.92L24.9793 5.52747Z" fill="#FF0000"/>
<path id="Vector 2" d="M15 24.059L15.1512 14.0337L17.4192 21.7805L15 24.059Z" fill="#FF0000"/>
<path id="Vector 3" d="M13.0348 21.9324V14.4894L10.0107 18.8944L13.0348 21.9324Z" fill="#FF0000"/>
</g>
<defs>
<clipPath id="clip0_47_68">
<rect width="29.3333" height="24" fill="white" transform="translate(0.333008 0.666626)"/>
</clipPath>
</defs>
</svg>
